<?xml version="1.0" encoding="UTF-8" standalone="no" ?>
<!DOCTYPE svg PUBLIC "-//W3C//DTD SVG 1.1//EN" "http://www.w3.org/Graphics/SVG/1.1/DTD/svg11.dtd">
<svg xmlns="http://www.w3.org/2000/svg" xmlns:xlink="http://www.w3.org/1999/xlink" version="1.1" width="1080" height="1080" viewBox="0 0 1080 1080" xml:space="preserve">
<desc>Created with Fabric.js 5.2.4</desc>
<defs>
</defs>
<g transform="matrix(1 0 0 1 540 540)" id="06fc8016-1478-4f6e-82b6-b28b46937cc2"  >
</g>
<g transform="matrix(1 0 0 1 540 540)" id="63f90349-9781-4946-832c-e77891e1f637"  >
<rect style="stroke: none; stroke-width: 1; stroke-dasharray: none; stroke-linecap: butt; stroke-dashoffset: 0; stroke-linejoin: miter; stroke-miterlimit: 4; fill: rgb(255,255,255); fill-rule: nonzero; opacity: 1; visibility: hidden;" vector-effect="non-scaling-stroke"  x="-540" y="-540" rx="0" ry="0" width="1080" height="1080" />
</g>
<g transform="matrix(1.49 0 0 1.49 541.54 540.05)"  >
<path style="stroke: rgb(128,128,128); stroke-width: 1; stroke-dasharray: none; stroke-linecap: butt; stroke-dashoffset: 0; stroke-linejoin: miter; stroke-miterlimit: 4; fill: rgb(128,128,128); fill-rule: nonzero; opacity: 1;" vector-effect="non-scaling-stroke"  transform=" translate(-50, -50)" d="M 82.53 93.47 L 17.47 93.47 L 17.47 6.53 L 82.53 6.53 Z M 19.74 91.2 L 80.26 91.2 L 80.26 8.8 L 19.74 8.8 Z" stroke-linecap="round" />
</g>
<g transform="matrix(1.49 0 0 1.49 541.54 487.61)"  >
<path style="stroke: rgb(128,128,128); stroke-width: 1; stroke-dasharray: none; stroke-linecap: butt; stroke-dashoffset: 0; stroke-linejoin: miter; stroke-miterlimit: 4; fill: rgb(128,128,128); fill-rule: nonzero; opacity: 1;" vector-effect="non-scaling-stroke"  transform=" translate(-50.01, -14.8)" d="M 50 21.92 C 42.13450985556964 21.908983891161647 35.761016108838355 15.535490144430355 35.75 7.669999999999998 L 38 7.67 C 38 14.29741699796952 43.37258300203048 19.67 50 19.67 C 56.62741699796952 19.67 62 14.29741699796952 62 7.67 L 64.27 7.67 C 64.25896524247533 15.543291763718987 57.87329949655537 21.920007732840187 50 21.92 Z" stroke-linecap="round" />
</g>
<g transform="matrix(1.49 0 0 1.49 541.52 592.61)"  >
<path style="stroke: none; stroke-width: 1; stroke-dasharray: none; stroke-linecap: butt; stroke-dashoffset: 0; stroke-linejoin: miter; stroke-miterlimit: 4; fill: rgb(128,128,128); fill-rule: nonzero; opacity: 1;" vector-effect="non-scaling-stroke"  transform=" translate(-50, -85.2)" d="M 64.25 92.33 L 62 92.33 C 62 85.70258300203048 56.62741699796952 80.33 50 80.33 C 43.37258300203048 80.33 38 85.70258300203048 38 92.33 L 35.75 92.33 C 35.75 84.45994231491119 42.12994231491119 78.08 50 78.08 C 57.87005768508881 78.08 64.25 84.45994231491119 64.25 92.33 Z" stroke-linecap="round" />
</g>
<g transform="matrix(1.49 0 0 1.49 541.53 540.12)"  >
<rect style="stroke: none; stroke-width: 1; stroke-dasharray: none; stroke-linecap: butt; stroke-dashoffset: 0; stroke-linejoin: miter; stroke-miterlimit: 4; fill: rgb(128,128,128); fill-rule: nonzero; opacity: 1;" vector-effect="non-scaling-stroke"  x="-31.335" y="-1.135" rx="0" ry="0" width="62.67" height="2.27" />
</g>
<g transform="matrix(1.49 0 0 1.49 541.53 540.1)"  >
<path style="stroke: none; stroke-width: 1; stroke-dasharray: none; stroke-linecap: butt; stroke-dashoffset: 0; stroke-linejoin: miter; stroke-miterlimit: 4; fill: rgb(128,128,128); fill-rule: nonzero; opacity: 1;" vector-effect="non-scaling-stroke"  transform=" translate(-50, -50)" d="M 50 60.47 C 44.21757866927159 60.47 39.53 55.78242133072841 39.53 50 C 39.53 44.21757866927159 44.21757866927159 39.53 50 39.53 C 55.782421330728404 39.53 60.47 44.21757866927159 60.47 50 C 60.4589945289759 55.77785657549625 55.77785657549625 60.45899452897589 50 60.47 Z M 50 41.8 C 45.4712650513875 41.800000000000004 41.8 45.471265051387505 41.800000000000004 50.00000000000001 C 41.80000000000001 54.52873494861251 45.471265051387505 58.2 50.00000000000001 58.199999999999996 C 54.52873494861252 58.19999999999999 58.2 54.528734948612495 58.2 49.99999999999999 C 58.194490011320205 45.473549327930556 54.526450672069444 41.805509988679795 50 41.8 Z" stroke-linecap="round" />
</g>
<g transform="matrix(0 0 0 0 0 0)"  >
<g style=""   >
</g>
</g>
<g transform="matrix(0 0 0 0 0 0)"  >
<g style=""   >
</g>
</g>
<g transform="matrix(0 0 0 0 0 0)"  >
<g style=""   >
</g>
</g>
<g transform="matrix(0 0 0 0 0 0)"  >
<g style=""   >
</g>
</g>
<g transform="matrix(0 0 0 0 0 0)"  >
<g style=""   >
</g>
</g>
<g transform="matrix(0 0 0 0 0 0)"  >
<g style=""   >
</g>
</g>
<g transform="matrix(0 0 0 0 0 0)"  >
<g style=""   >
</g>
</g>
<g transform="matrix(0 0 0 0 0 0)"  >
<g style=""   >
</g>
</g>
<g transform="matrix(0 0 0 0 0 0)"  >
<g style=""   >
</g>
</g>
<g transform="matrix(0 0 0 0 0 0)"  >
<g style=""   >
</g>
</g>
<g transform="matrix(0 0 0 0 0 0)"  >
<g style=""   >
</g>
</g>
<g transform="matrix(0 0 0 0 0 0)"  >
<g style=""   >
</g>
</g>
<g transform="matrix(0 0 0 0 0 0)"  >
<g style=""   >
</g>
</g>
<g transform="matrix(0 0 0 0 0 0)"  >
<g style=""   >
</g>
</g>
</svg>