<?xml version="1.0" encoding="UTF-8" standalone="no" ?>
<!DOCTYPE svg PUBLIC "-//W3C//DTD SVG 1.1//EN" "http://www.w3.org/Graphics/SVG/1.1/DTD/svg11.dtd">
<svg xmlns="http://www.w3.org/2000/svg" xmlns:xlink="http://www.w3.org/1999/xlink" version="1.1" width="1080" height="1080" viewBox="0 0 1080 1080" xml:space="preserve">
<desc>Created with Fabric.js 5.2.4</desc>
<defs>
</defs>
<rect x="0" y="0" width="100%" height="100%" fill="transparent"></rect>
<g transform="matrix(1 0 0 1 540 540)" id="3d1cedeb-bd43-4cbd-86b7-329427081ef0"  >
<rect style="stroke: none; stroke-width: 1; stroke-dasharray: none; stroke-linecap: butt; stroke-dashoffset: 0; stroke-linejoin: miter; stroke-miterlimit: 4; fill: rgb(255,255,255); fill-rule: nonzero; opacity: 1; visibility: hidden;" vector-effect="non-scaling-stroke"  x="-540" y="-540" rx="0" ry="0" width="1080" height="1080" />
</g>
<g transform="matrix(1 0 0 1 540 540)" id="6b82b203-4eab-4361-9b7f-9b93986d29be"  >
</g>
<g transform="matrix(10.74 0 0 10.74 540 540)"  >
<path style="stroke: none; stroke-width: 1; stroke-dasharray: none; stroke-linecap: butt; stroke-dashoffset: 0; stroke-linejoin: miter; stroke-miterlimit: 4; fill: rgb(0,0,0); fill-rule: nonzero; opacity: 1;" vector-effect="non-scaling-stroke"  transform=" translate(-50, -50)" d="M 81.16943 1.5 L 18.83057 1.5 C 18.69793816673272 1.4999230065329425 18.570716470682193 1.5525767016689835 18.47693158617559 1.6463615861755867 C 18.383146701668984 1.7401464706821899 18.330493006532944 1.8673681667327189 18.33057 1.9999999999999998 L 18.33057 98 C 18.330493006532944 98.13263183326728 18.383146701668984 98.25985352931781 18.47693158617559 98.35363841382441 C 18.570716470682193 98.44742329833102 18.69793816673272 98.50007699346706 18.83057 98.5 L 81.16943 98.5 C 81.30206183326729 98.50007699346706 81.42928352931781 98.44742329833102 81.52306841382442 98.35363841382441 C 81.61685329833102 98.25985352931781 81.66950699346707 98.13263183326728 81.66943 98 L 81.66943 2 C 81.66950699346707 1.867368166732719 81.61685329833102 1.7401464706821899 81.52306841382442 1.6463615861755867 C 81.42928352931781 1.5525767016689835 81.30206183326729 1.4999230065329425 81.16943 1.5 Z M 80.66943 6.04169 C 78.81668683511957 5.812355279914338 77.35707948883702 4.352743812403025 77.12775 2.5000000000000013 L 80.66943 2.5 Z M 58.30615 97.5 L 41.69385 97.5 L 41.69385 92.01172 L 58.30615 92.01172 Z M 58.80615 91.01172 L 41.19385 91.01172 C 41.061218166732715 91.01164300653294 40.93399647068219 91.06429670166898 40.840211586175585 91.15808158617558 C 40.74642670166898 91.25186647068219 40.69377300653294 91.37908816673271 40.69385 91.51172 L 40.69385 97.5 L 35.81592 97.5 L 35.81592 83.8042 L 64.18408 83.8042 L 64.18408 97.5 L 59.30615 97.5 L 59.30615 91.51172 C 59.30622699346706 91.37908816673271 59.25357329833102 91.25186647068219 59.159788413824415 91.15808158617558 C 59.06600352931781 91.06429670166898 58.938781833267285 91.01164300653294 58.80615 91.01172 Z M 44.18347 82.8042 C 45.5610301973034 80.9803135744276 47.714341716139124 79.9081974368215 50 79.9081974368215 C 52.285658283860876 79.9081974368215 54.438969802696604 80.9803135744276 55.81653 82.8042 Z M 64.68408 82.8042 L 57.01843 82.8042 C 55.50838424320281 80.38102438270758 52.85517394564003 78.90820172110966 50 78.90820172110966 C 47.144826054359974 78.90820172110966 44.491615756797195 80.38102438270758 42.981570000000005 82.8042 L 35.31592 82.8042 C 35.183288166732716 82.80412300653293 35.05606647068219 82.85677670166898 34.962281586175585 82.95056158617558 C 34.86849670166898 83.04434647068219 34.815843006532944 83.17156816673271 34.81592 83.3042 L 34.81592 97.5 L 23.87231 97.5 C 23.63442917930315 95.097078582028 21.73349089420092 93.19613611144116 19.33057 92.95824999999999 L 19.330569999999998 50.573249999999994 L 38.887 50.573249999999994 C 39.193950996045025 56.48694037350388 44.07838881577397 61.12442597276114 50.00004 61.12442597276114 C 55.92169118422603 61.12442597276114 60.80612900395498 56.48694037350388 61.11308 50.573249999999994 L 80.66943 50.573249999999994 L 80.66943 92.95824999999999 C 78.26650910579909 93.19613611144116 76.36557082069685 95.097078582028 76.12769 97.5 L 65.18408 97.5 L 65.18408 83.3042 C 65.18415699346706 83.17156816673271 65.13150329833101 83.04434647068219 65.03771841382441 82.95056158617558 C 64.9439335293178 82.85677670166898 64.81671183326728 82.80412300653293 64.68408 82.8042 Z M 50.567319999999995 49.57319999999999 C 50.42640833714549 49.40583429517281 50.218786141884536 49.30922865958149 50 49.30922865958149 C 49.78121385811546 49.30922865958149 49.573591662854504 49.40583429517281 49.43268 49.57319999999999 L 39.87756 49.57319999999999 C 40.08939911973255 44.13605643399102 44.55873121689051 39.837465168078154 50 39.837465168078154 C 55.44126878310949 39.837465168078154 59.91060088026745 44.13605643399102 60.12244 49.57319999999999 Z M 49.43261999999999 50.57319999999999 C 49.5735316141591 50.74060832777778 49.78118128230363 50.83724261360068 49.99999999999999 50.83724261360068 C 50.21881871769636 50.83724261360068 50.426468385840884 50.74060832777778 50.56737999999999 50.57319999999999 L 60.113 50.57319999999999 C 59.80591571199711 55.93379834390365 55.36934687045373 60.12348995348073 49.99996 60.12348995348073 C 44.63057312954628 60.12348995348073 40.1940042880029 55.93379834390365 39.88692 50.57319999999999 Z M 61.12243999999999 49.57319999999999 C 60.91051034617735 43.58351178620507 55.99343633290978 38.83733882451415 49.999999999999986 38.83733882451415 C 44.0065636670902 38.83733882451415 39.08948965382263 43.58351178620507 38.87755999999999 49.57319999999999 L 19.330559999999988 49.57319999999999 L 19.330559999999988 7.04175 C 21.73348479155312 6.803868364068735 23.63442836406873 4.902924791553132 23.87231 2.499999999999999 L 34.81592 2.5 L 34.81592 16.65674 C 34.815843006532944 16.789371833267282 34.86849670166898 16.916593529317808 34.962281586175585 17.010378413824412 C 35.05606647068219 17.104163298331017 35.183288166732716 17.156816993467057 35.31592 17.15674 L 42.981629999999996 17.15674 C 44.491842035263225 19.579647552640818 47.14496560439321 21.052250127440516 50 21.052250127440516 C 52.855034395606786 21.052250127440516 55.50815796473677 19.579647552640814 57.01837 17.156739999999996 L 64.68408 17.15674 C 64.81671183326728 17.156816993467057 64.9439335293178 17.104163298331017 65.03771841382441 17.010378413824412 C 65.13150329833101 16.916593529317808 65.18415699346706 16.78937183326728 65.18408 16.65674 L 65.18408 2.5 L 76.12769 2.5 C 76.36557082069686 4.902921417971994 78.26650910579909 6.80386388855883 80.66943 7.04175 L 80.66943 49.57324 Z M 41.69385 2.5 L 58.30615 2.5 L 58.30615 7.94873 L 41.69385 7.94873 Z M 41.19385 8.948730000000001 L 58.80615 8.948730000000001 C 58.938781833267285 8.948806993467059 59.06600352931781 8.896153298331017 59.159788413824415 8.802368413824414 C 59.25357329833102 8.708583529317812 59.30622699346706 8.581361833267282 59.30615 8.448730000000001 L 59.30615 2.5 L 64.18408000000001 2.5 L 64.18408000000001 16.15674 L 35.81592 16.15674 L 35.81592 2.5 L 40.69385 2.5 L 40.69385 8.44873 C 40.69377300653294 8.58136183326728 40.74642670166898 8.70858352931781 40.840211586175585 8.802368413824412 C 40.93399647068219 8.896153298331015 41.061218166732715 8.948806993467057 41.19385 8.94873 Z M 55.81653 17.156730000000003 C 54.438790173554665 18.980337745616875 52.28554418886345 20.052238269707242 50 20.052238269707242 C 47.71445581113655 20.052238269707242 45.561209826445335 18.980337745616875 44.18347 17.156730000000003 Z M 22.87225 2.5 C 22.642920511162995 4.352743812403025 21.183313164880435 5.812355279914338 19.33057 6.041689999999999 L 19.33057 2.5 Z M 19.33057 93.95831 C 21.183313164880435 94.18764472008566 22.642920511162995 95.64725618759698 22.87225 97.5 L 19.33057 97.5 Z M 77.12775 97.5 C 77.35707948883702 95.64725618759698 78.81668683511957 94.18764472008566 80.66943 93.95831 L 80.66943 97.5 Z" stroke-linecap="round" />
</g>
<g transform="matrix(1 0 0 1 549.17 491.17)"  >
<path style="stroke: none; stroke-width: 1; stroke-dasharray: none; stroke-linecap: butt; stroke-dashoffset: 0; stroke-linejoin: miter; stroke-miterlimit: 4; fill: rgb(0,0,0); fill-rule: nonzero; opacity: 1;" vector-effect="non-scaling-stroke"  transform=" translate(-50, -12.55)" d="M 50 13.31671 C 50.421945548870724 13.316709999999999 50.763999999999996 12.974655548870723 50.763999999999996 12.552709999999998 C 50.763999999999996 12.130764451129272 50.421945548870724 11.78871 49.99999999999999 11.78871 C 49.57805445112927 11.788710000000002 49.236 12.130764451129275 49.236 12.552710000000001 C 49.236 12.755335398237413 49.31649262603918 12.949661787692225 49.45977041917347 13.092939580826524 C 49.603048212307776 13.236217373960823 49.79737460176259 13.31671 50 13.31671 Z" stroke-linecap="round" />
</g>
<g transform="matrix(1 0 0 1 549.17 566.03)"  >
<path style="stroke: none; stroke-width: 1; stroke-dasharray: none; stroke-linecap: butt; stroke-dashoffset: 0; stroke-linejoin: miter; stroke-miterlimit: 4; fill: rgb(0,0,0); fill-rule: nonzero; opacity: 1;" vector-effect="non-scaling-stroke"  transform=" translate(-50, -87.41)" d="M 50 86.644 C 49.69099084496532 86.644 49.412408721242286 86.83014262397793 49.29415603716138 87.11562985767308 C 49.17590335308047 87.40111709136822 49.241267950199735 87.72972711185278 49.45977041917348 87.94822958082653 C 49.678272888147234 88.16673204980027 50.00688290863179 88.23209664691953 50.29237014232694 88.11384396283863 C 50.57785737602208 87.99559127875771 50.764 87.71700915503467 50.764 87.408 C 50.764 86.98605445112928 50.421945548870724 86.644 50 86.644 Z" stroke-linecap="round" />
</g>
</svg>