<svg xmlns="http://www.w3.org/2000/svg" data-name="Layer 1" viewBox="0 0 100 125" x="0px" y="0px"><title>Sports_pitches_fields_&amp;amp;_tracks-O-Icons</title><path d="M81.16943,1.5H18.83057a.49971.49971,0,0,0-.5.5V98a.49971.49971,0,0,0,.5.5H81.16943a.49971.49971,0,0,0,.5-.5V2A.49971.49971,0,0,0,81.16943,1.5Zm-.5,4.54169A4.07285,4.07285,0,0,1,77.12775,2.5h3.54168ZM58.30615,97.5H41.69385V92.01172h16.6123Zm.5-6.48828H41.19385a.49971.49971,0,0,0-.5.5V97.5H35.81592V83.8042H64.18408V97.5H59.30615V91.51172A.49971.49971,0,0,0,58.80615,91.01172ZM44.18347,82.8042a7.28916,7.28916,0,0,1,11.63306,0Zm20.50061,0H57.01843a8.26966,8.26966,0,0,0-14.03686,0H35.31592a.49971.49971,0,0,0-.5.5V97.5H23.87231a5.06541,5.06541,0,0,0-4.54174-4.54175v-42.385H38.887a11.128,11.128,0,0,0,22.22608,0H80.66943v42.385A5.06541,5.06541,0,0,0,76.12769,97.5H65.18408V83.3042A.49971.49971,0,0,0,64.68408,82.8042Zm-14.11676-33.231a.74162.74162,0,0,0-1.13464,0H39.87756a10.13012,10.13012,0,0,1,20.24488,0Zm-1.1347,1a.74162.74162,0,0,0,1.13476,0H60.113a10.12962,10.12962,0,0,1-20.22608,0Zm11.68982-1a11.1294,11.1294,0,0,0-22.24488,0h-19.547V7.04175A5.06541,5.06541,0,0,0,23.87231,2.5H34.81592V16.65674a.49971.49971,0,0,0,.5.5h7.66571a8.2701,8.2701,0,0,0,14.03674,0h7.66571a.49971.49971,0,0,0,.5-.5V2.5H76.12769a5.06541,5.06541,0,0,0,4.54174,4.54175V49.57324ZM41.69385,2.5h16.6123V7.94873H41.69385Zm-.5,6.44873h17.6123a.49971.49971,0,0,0,.5-.5V2.5h4.87793V16.15674H35.81592V2.5h4.87793V8.44873A.49971.49971,0,0,0,41.19385,8.94873Zm14.62268,8.208a7.28991,7.28991,0,0,1-11.63306,0ZM22.87225,2.5a4.07285,4.07285,0,0,1-3.54168,3.54169V2.5ZM19.33057,93.95831A4.07285,4.07285,0,0,1,22.87225,97.5H19.33057ZM77.12775,97.5a4.07285,4.07285,0,0,1,3.54168-3.54169V97.5Z"/><path d="M50,13.31671a.764.764,0,1,0-.764-.764A.764.764,0,0,0,50,13.31671Z"/><path d="M50,86.644a.764.764,0,1,0,.764.764A.764.764,0,0,0,50,86.644Z"/><text x="0" y="115" fill="#000000" font-size="5px" font-weight="bold" font-family="'Helvetica Neue', Helvetica, Arial-Unicode, Arial, Sans-serif">Created by Tom Fricker</text><text x="0" y="120" fill="#000000" font-size="5px" font-weight="bold" font-family="'Helvetica Neue', Helvetica, Arial-Unicode, Arial, Sans-serif">from the Noun Project</text></svg>